<?xml version="1.0" encoding="UTF-8"?>
<svg version="1.1" xmlns="http://www.w3.org/2000/svg" width="225" height="225">
<path d="M0 0 C74.25 0 148.5 0 225 0 C225 74.25 225 148.5 225 225 C150.75 225 76.5 225 0 225 C0 150.75 0 76.5 0 0 Z " fill="#FEFEFE" transform="translate(0,0)"/>
<path d="M0 0 C18.44833328 14.80874732 31.28138874 34.72746518 34.125 58.56640625 C35.64580963 81.11603006 31.08710324 100.92357495 18.125 119.56640625 C17.31044431 120.7942116 16.49753376 122.02311291 15.6875 123.25390625 C15.171875 124.01703125 14.65625 124.78015625 14.125 125.56640625 C14.785 126.22640625 15.445 126.88640625 16.125 127.56640625 C15.75 130.69140625 15.75 130.69140625 15.125 133.56640625 C10.375 134.69140625 10.375 134.69140625 8.125 133.56640625 C8.125 132.90640625 8.125 132.24640625 8.125 131.56640625 C6.99578125 132.51 6.99578125 132.51 5.84375 133.47265625 C-14.24812878 149.83525105 -36.10004599 155.89298604 -61.875 154.56640625 C-81.39636247 152.29468951 -97.83807029 142.97517732 -111.875 129.56640625 C-112.48988281 129.02628906 -113.10476562 128.48617187 -113.73828125 127.9296875 C-127.25154742 115.59689055 -135.82563623 95.12572266 -137.0390625 77.13378906 C-138.14995361 52.27760047 -131.66499157 29.88923663 -114.90234375 11.19140625 C-85.07836479 -20.76219983 -35.53293114 -26.24995288 0 0 Z " fill="#F8DAD0" transform="translate(163.875,43.43359375)"/>
<path d="M0 0 C1.38372803 0.01812744 1.38372803 0.01812744 2.79541016 0.03662109 C11.93088751 0.30260905 20.40993949 1.99004786 27.07568359 8.71386719 C34.53168366 17.3095332 33.16213363 28.44614856 33.125 39.125 C33.11290341 42.61772988 33.12674208 46.10896302 33.15625 49.6015625 C33.14493042 50.3902774 33.13361084 51.17899231 33.12194824 51.99160767 C33.17304562 57.63008207 34.51201724 60.79844095 37.625 65.5 C38.6875 67.625 38.6875 67.625 38.625 69.5 C37.02437453 71.42075057 35.49756261 72.86892171 33.625 74.5 C32.55378906 75.53833984 32.55378906 75.53833984 31.4609375 76.59765625 C30.69007813 77.32855469 29.91921875 78.05945313 29.125 78.8125 C28.3928125 79.50988281 27.660625 80.20726562 26.90625 80.92578125 C24.17136685 82.81303794 22.88158334 83.05063003 19.625 82.5 C17.82421875 81.2578125 17.82421875 81.2578125 16.3125 79.625 C15.80074219 79.09132813 15.28898437 78.55765625 14.76171875 78.0078125 C13.625 76.5 13.625 76.5 13.625 74.5 C12.6659375 75.0878125 12.6659375 75.0878125 11.6875 75.6875 C10.676875 76.285625 9.66625 76.88375 8.625 77.5 C8.06296875 77.933125 7.5009375 78.36625 6.921875 78.8125 C1.62579571 82.48222423 -3.1609079 83.0042352 -9.4375 83.0625 C-10.57094849 83.08413208 -10.57094849 83.08413208 -11.72729492 83.10620117 C-18.2637104 82.99035517 -23.35772026 80.99886681 -28.3984375 76.82421875 C-33.78515126 70.3010018 -34.92424113 63.93933305 -34.74609375 55.56640625 C-33.92583019 48.78843897 -30.98757562 43.4252642 -25.6875 39.125 C-15.32099479 32.25282239 -3.63687251 30.09797139 8.625 30.5 C8.30569572 24.94650723 8.30569572 24.94650723 6.0625 20 C2.62139266 17.88239548 -0.50683843 17.60616187 -4.375 18.5 C-7.44565186 20.88828478 -9.04979427 22.72977591 -10.5625 26.3125 C-12.375 28.5 -12.375 28.5 -14.53515625 28.84765625 C-17.1776454 28.87555583 -19.74366073 28.73921266 -22.375 28.5 C-23.08140625 28.44328125 -23.7878125 28.3865625 -24.515625 28.328125 C-27.66427903 27.98415439 -29.08367331 27.79132669 -31.375 25.5 C-31.88279324 20.40090959 -30.61225858 16.29113099 -27.625 12.1875 C-20.12646881 3.23535284 -11.53382989 -0.24217463 0 0 Z " fill="#8583B1" transform="translate(113.375,58.5)"/>
<path d="M0 0 C4.87407444 -0.54984779 8.17769172 1.41707207 12.3125 3.6875 C36.95076687 16.61708603 69.10392386 20.76176404 96 13 C100.00778579 11.56673308 103.90494145 9.93831968 107.79296875 8.20703125 C110.83035874 7.06384793 112.80204443 6.72898682 116 7 C116.495 9.475 116.495 9.475 117 12 C98.96541246 24.44018487 81.76889854 28.18901072 60.25 28.4375 C59.0427124 28.45989746 57.8354248 28.48229492 56.59155273 28.50537109 C45.09063461 28.47553325 34.96828852 25.48698236 24.8125 20.1875 C24.14033447 19.84348145 23.46816895 19.49946289 22.77563477 19.14501953 C17.17447649 16.21700379 11.98363508 12.89546522 7 9 C6.28714844 8.45085937 5.57429688 7.90171875 4.83984375 7.3359375 C2.875 5.75 2.875 5.75 0 3 C0 2.01 0 1.02 0 0 Z " fill="#EAB51A" transform="translate(49,139)"/>
<path d="M0 0 C1.38372803 0.01812744 1.38372803 0.01812744 2.79541016 0.03662109 C11.93088751 0.30260905 20.40993949 1.99004786 27.07568359 8.71386719 C34.53168366 17.3095332 33.16213363 28.44614856 33.125 39.125 C33.11290341 42.61772988 33.12674208 46.10896302 33.15625 49.6015625 C33.14493042 50.3902774 33.13361084 51.17899231 33.12194824 51.99160767 C33.17304562 57.63008207 34.51201724 60.79844095 37.625 65.5 C38.6875 67.625 38.6875 67.625 38.625 69.5 C37.02437453 71.42075057 35.49756261 72.86892171 33.625 74.5 C32.55378906 75.53833984 32.55378906 75.53833984 31.4609375 76.59765625 C30.69007813 77.32855469 29.91921875 78.05945313 29.125 78.8125 C28.3928125 79.50988281 27.660625 80.20726562 26.90625 80.92578125 C24.17136685 82.81303794 22.88158334 83.05063003 19.625 82.5 C17.82421875 81.2578125 17.82421875 81.2578125 16.3125 79.625 C15.80074219 79.09132813 15.28898437 78.55765625 14.76171875 78.0078125 C13.625 76.5 13.625 76.5 13.625 74.5 C12.6659375 75.0878125 12.6659375 75.0878125 11.6875 75.6875 C10.676875 76.285625 9.66625 76.88375 8.625 77.5 C8.06296875 77.933125 7.5009375 78.36625 6.921875 78.8125 C1.62579571 82.48222423 -3.1609079 83.0042352 -9.4375 83.0625 C-10.57094849 83.08413208 -10.57094849 83.08413208 -11.72729492 83.10620117 C-18.2637104 82.99035517 -23.35772026 80.99886681 -28.3984375 76.82421875 C-33.78515126 70.3010018 -34.92424113 63.93933305 -34.74609375 55.56640625 C-33.92583019 48.78843897 -30.98757562 43.4252642 -25.6875 39.125 C-15.32099479 32.25282239 -3.63687251 30.09797139 8.625 30.5 C8.30569572 24.94650723 8.30569572 24.94650723 6.0625 20 C2.62139266 17.88239548 -0.50683843 17.60616187 -4.375 18.5 C-7.44565186 20.88828478 -9.04979427 22.72977591 -10.5625 26.3125 C-12.375 28.5 -12.375 28.5 -14.53515625 28.84765625 C-17.1776454 28.87555583 -19.74366073 28.73921266 -22.375 28.5 C-23.08140625 28.44328125 -23.7878125 28.3865625 -24.515625 28.328125 C-27.66427903 27.98415439 -29.08367331 27.79132669 -31.375 25.5 C-31.88279324 20.40090959 -30.61225858 16.29113099 -27.625 12.1875 C-20.12646881 3.23535284 -11.53382989 -0.24217463 0 0 Z M-25.375 13.5 C-28.05574144 17.73730099 -28.375 19.33518173 -28.375 24.5 C-23.425 24.83 -18.475 25.16 -13.375 25.5 C-12.653125 24.22125 -11.93125 22.9425 -11.1875 21.625 C-9.55144413 19.03114111 -8.61871422 17.65392477 -6 16 C-1.45579421 15.13443699 2.1466453 14.84295346 6.4375 16.75 C9.55725641 19.24580513 10.45525613 21.35342819 11.0390625 25.296875 C11.14347656 26.75867188 11.14347656 26.75867188 11.25 28.25 C11.32476562 29.23484375 11.39953125 30.2196875 11.4765625 31.234375 C11.52554688 31.98203125 11.57453125 32.7296875 11.625 33.5 C10.98175781 33.46519531 10.33851562 33.43039063 9.67578125 33.39453125 C-1.28721003 33.06611068 -15.92205469 34.79070266 -24.4765625 42.359375 C-30.05663057 48.46759766 -31.80965792 53.4734801 -31.62109375 61.71484375 C-31.13200926 67.25003803 -29.75402391 71.59052697 -25.5625 75.375 C-18.09227822 80.35514785 -10.1047981 80.40973685 -1.375 79.5 C3.97744859 77.6494978 7.79825959 74.63287964 11.625 70.5 C12.285 70.5 12.945 70.5 13.625 70.5 C15.20140517 72.47726249 16.57956984 74.55560498 17.9921875 76.65234375 C19.50342285 78.55907011 19.50342285 78.55907011 21.4609375 79.5625 C25.01767488 79.45977834 26.97346752 76.93566793 29.375 74.5625 C29.88160156 74.08103516 30.38820312 73.59957031 30.91015625 73.10351562 C32.15912504 71.91346046 33.3935103 70.70813387 34.625 69.5 C34.09480104 66.8490052 33.3047933 64.84525589 32.10302734 62.38793945 C30.28603845 58.17991336 30.23392397 54.38563992 30.2890625 49.85546875 C30.27654761 48.19205341 30.26351038 46.52864193 30.25 44.86523438 C30.24608244 42.27842278 30.24997448 39.69199897 30.26464844 37.10522461 C30.55518507 22.99777777 30.55518507 22.99777777 24.625 10.5 C17.83871814 3.99404161 9.81418561 3.13867147 0.75 3.125 C-0.09691406 3.10050781 -0.94382812 3.07601562 -1.81640625 3.05078125 C-11.19433645 3.00769734 -19.02018192 6.55964313 -25.375 13.5 Z " fill="#482B27" transform="translate(113.375,58.5)"/>
<path d="M0 0 C4.87407444 -0.54984779 8.17769172 1.41707207 12.3125 3.6875 C36.95076687 16.61708603 69.10392386 20.76176404 96 13 C100.00778579 11.56673308 103.90494145 9.93831968 107.79296875 8.20703125 C110.83035874 7.06384793 112.80204443 6.72898682 116 7 C116.495 9.475 116.495 9.475 117 12 C98.96541246 24.44018487 81.76889854 28.18901072 60.25 28.4375 C59.0427124 28.45989746 57.8354248 28.48229492 56.59155273 28.50537109 C45.09063461 28.47553325 34.96828852 25.48698236 24.8125 20.1875 C24.14033447 19.84348145 23.46816895 19.49946289 22.77563477 19.14501953 C17.17447649 16.21700379 11.98363508 12.89546522 7 9 C6.28714844 8.45085937 5.57429688 7.90171875 4.83984375 7.3359375 C2.875 5.75 2.875 5.75 0 3 C0 2.01 0 1.02 0 0 Z M4 3 C11.61746779 11.05557818 21.24334719 16.48224963 31.3125 20.9375 C31.94518799 21.21964355 32.57787598 21.50178711 33.22973633 21.79248047 C42.24366048 25.60835555 50.82654541 26.36162474 60.5625 26.3125 C61.71129639 26.30758545 62.86009277 26.3026709 64.04370117 26.29760742 C82.38708343 26.04608084 99.82584372 21.85430639 115 11 C115 10.34 115 9.68 115 9 C110.85819419 9.70332552 107.08024124 10.9715273 103.125 12.375 C75.24718482 21.75702233 41.82681012 20.99782039 15.14233398 7.79150391 C13.10333846 6.74075316 11.08162728 5.66254638 9.0625 4.57421875 C6.27744161 2.84761047 6.27744161 2.84761047 4 3 Z " fill="#4B2C25" transform="translate(49,139)"/>
<path d="M0 0 C0.4680919 7.07338873 0.58291552 13.23257709 -4 19 C-7.13444586 21.20078113 -8.86378874 22.05284704 -12.6875 21.875 C-15.95923676 20.63704555 -17.45089293 19.09821414 -19 16 C-19.46674112 12.59945755 -19.63201439 10.0890767 -17.87109375 7.0546875 C-12.82497943 0.75692603 -7.97921739 -0.3191687 0 0 Z " fill="#F3D5CB" transform="translate(122,103)"/>
<path d="M0 0 C0.66719633 7.33915965 -1.32929687 14.92207086 -5.37890625 21.10546875 C-6.75 22.75 -6.75 22.75 -9 25 C-10.32 24.67 -11.64 24.34 -13 24 C-12.54938717 21.37142518 -12.05494955 19.11959608 -10.9375 16.6875 C-9.56083712 13.21545382 -9.56083712 13.21545382 -10 6 C-15.61 6 -21.22 6 -27 6 C-26 2 -26 2 -24.35546875 0.734375 C-16.40212202 -2.87687432 -8.08224847 -3.68715715 0 0 Z " fill="#54352C" transform="translate(179,138)"/>
<path d="M0 0 C3.7359116 3.11325967 3.7359116 3.11325967 5 6 C5.32619761 9.60856102 4.69963609 12.72419301 2.9375 15.9375 C-0.27580699 17.69963609 -3.39143898 18.32619761 -7 18 C-9.93127467 16.71641025 -10.84802356 15.58237172 -13 13 C-13.77152986 8.67943279 -13.52747866 6.80880061 -11.125 3.125 C-7.56808313 -0.43191687 -4.98162016 -0.59103968 0 0 Z " fill="#F0BC1E" transform="translate(193,27)"/>
<path d="M0 0 C3.48825925 0.92832706 4.94573896 2.59022598 6.9375 5.515625 C7.7253128 9.9273767 7.46725133 11.73755274 4.9375 15.453125 C0.78669686 18.30680216 -1.0926078 18.2256096 -6.0625 17.515625 C-9.35541844 15.40477985 -9.95025952 13.87215358 -11.125 10.140625 C-11.0625 6.515625 -11.0625 6.515625 -9.125 3.078125 C-5.74382191 0.24897599 -4.27427914 -0.35618993 0 0 Z " fill="#F9CD5A" transform="translate(40.0625,166.484375)"/>
<path d="M0 0 C0.89203125 0.00902344 1.7840625 0.01804687 2.703125 0.02734375 C3.37859375 0.03894531 4.0540625 0.05054687 4.75 0.0625 C5.54323308 16.98480576 5.54323308 16.98480576 0.75 23.0625 C-2.03329294 25.99624121 -3.78095868 26.93457964 -7.6875 28 C-11.8660449 28.07330781 -13.8109029 27.40733893 -17.25 25.0625 C-20.45251285 21.43298543 -20.78016291 17.94929468 -20.59375 13.2734375 C-20.03651473 9.68940156 -18.6662877 7.72661208 -16.25 5.0625 C-11.02076116 1.27706493 -6.36624764 -0.08376642 0 0 Z M-15.1875 8.8125 C-17.62372612 12.65140176 -17.82898577 14.59603838 -17.25 19.0625 C-16.06232145 22.44281589 -15.35174775 22.99466817 -12.25 25.0625 C-7.94658297 24.98280709 -5.82476422 24.52231138 -2.4375 21.8125 C1.08484889 17.38440425 2.01045172 13.87124628 1.875 8.25 C1.85695313 7.27417969 1.83890625 6.29835938 1.8203125 5.29296875 C1.79710938 4.55691406 1.77390625 3.82085937 1.75 3.0625 C-5.00614948 2.64885819 -10.41603411 3.78565988 -15.1875 8.8125 Z " fill="#482E2C" transform="translate(120.25,99.9375)"/>
<path d="M0 0 C1.44632813 -0.00386719 1.44632813 -0.00386719 2.921875 -0.0078125 C5.25 0.125 5.25 0.125 6.25 1.125 C6.9445413 7.22894948 6.17656682 12.70044309 3.25 18.125 C1.0625 20.625 1.0625 20.625 -0.75 22.125 C-0.5334375 21.47273438 -0.316875 20.82046875 -0.09375 20.1484375 C2.14509009 13.28348437 2.14509009 13.28348437 2.25 6.125 C0.31029948 3.74107883 0.31029948 3.74107883 -3.2265625 3.9296875 C-4.60950968 3.94298507 -5.99238654 3.96683768 -7.375 4 C-8.08140625 4.00902344 -8.7878125 4.01804688 -9.515625 4.02734375 C-11.26056098 4.05092397 -13.00532295 4.08679539 -14.75 4.125 C-10.13454421 0.19331544 -5.90447414 -0.01595804 0 0 Z " fill="#DEAB1A" transform="translate(169.75,137.875)"/>
<path d="M0 0 C1.1875 2.75 1.1875 2.75 2 6 C1 8.375 1 8.375 -1 10 C-4.0625 10.375 -4.0625 10.375 -7 10 C-9 8 -9 8 -9.3125 5.0625 C-9 2 -9 2 -7.875 0.0625 C-5.07329973 -1.52513015 -3.03014356 -0.74070176 0 0 Z " fill="#FEFDFD" transform="translate(149,172)"/>
<path d="M0 0 C1.98 0.495 1.98 0.495 4 1 C3.34 3.31 2.68 5.62 2 8 C2.59167969 7.97679688 3.18335937 7.95359375 3.79296875 7.9296875 C8.33801959 7.82588536 11.85940059 7.86291643 16 10 C12.61354495 12.0864415 10.29345145 12.15135082 6.375 11.75 C4.93253906 11.61851563 4.93253906 11.61851563 3.4609375 11.484375 C1 11 1 11 -1 9 C-0.9765625 6.8359375 -0.9765625 6.8359375 -0.625 4.375 C-0.51414062 3.55773437 -0.40328125 2.74046875 -0.2890625 1.8984375 C-0.19367188 1.27195312 -0.09828125 0.64546875 0 0 Z " fill="#492C28" transform="translate(83,75)"/>
<path d="M0 0 C1 1.33333333 2 2.66666667 3 4 C3.5775 4.639375 4.155 5.27875 4.75 5.9375 C6 8 6 8 5.83203125 10.390625 C4.81331986 13.58545695 3.52261676 14.71978643 0.9375 16.8125 C0.20402344 17.41707031 -0.52945313 18.02164063 -1.28515625 18.64453125 C-1.85105469 19.09183594 -2.41695312 19.53914063 -3 20 C-3.33 19.34 -3.66 18.68 -4 18 C-4.66 17.67 -5.32 17.34 -6 17 C-3.69 15.02 -1.38 13.04 1 11 C0.22404875 7.89619499 -0.5268006 5.74997221 -2 3 C-1.34 3 -0.68 3 0 3 C0 2.01 0 1.02 0 0 Z " fill="#4E3230" transform="translate(146,117)"/>
<path d="M0 0 C0.66 1.32 1.32 2.64 2 4 C1.505 4.515625 1.01 5.03125 0.5 5.5625 C-1.85958247 9.39682152 -1.30864538 13.04524595 -0.625 17.375 C-0.12575659 19.21806727 -0.12575659 19.21806727 2 20 C0.68 20.33 -0.64 20.66 -2 21 C-5.0001155 17.12485082 -5.5100167 13.97569461 -5.3671875 9.22265625 C-4.72919445 5.36076214 -2.75916009 2.75916009 0 0 Z " fill="#4C3232" transform="translate(105,104)"/>
<path d="M0 0 C2.5625 0.1875 2.5625 0.1875 4.5625 2.1875 C4.1875 5.3125 4.1875 5.3125 3.5625 8.1875 C1.25 8.875 1.25 8.875 -1.4375 9.1875 C-3.3125 8.0625 -3.3125 8.0625 -4.4375 6.1875 C-3.87661439 0.29820111 -3.87661439 0.29820111 0 0 Z " fill="#F7CD5E" transform="translate(175.4375,168.8125)"/>
<path d="M0 0 C3 0.125 3 0.125 4 1.125 C4.04080783 3.12458364 4.04254356 5.12545254 4 7.125 C1.6875 8.25 1.6875 8.25 -1 9.125 C-1.99 8.465 -2.98 7.805 -4 7.125 C-4.25 4.0625 -4.25 4.0625 -4 1.125 C-3 0.125 -3 0.125 0 0 Z " fill="#FDFDFC" transform="translate(189,96.875)"/>
<path d="M0 0 C1.1446875 0.3403125 1.1446875 0.3403125 2.3125 0.6875 C3 3 3 3 3.3125 5.6875 C2.1875 7.5625 2.1875 7.5625 0.3125 8.6875 C-2.375 8.375 -2.375 8.375 -4.6875 7.6875 C-5.375 5.375 -5.375 5.375 -5.6875 2.6875 C-4.0011022 -0.12316299 -3.27764429 -0.38112143 0 0 Z " fill="#EA3E53" transform="translate(32.6875,54.3125)"/>
<path d="M0 0 C4.55555556 0.55555556 4.55555556 0.55555556 6 2 C6.1875 4.4375 6.1875 4.4375 6 7 C5.34 7.66 4.68 8.32 4 9 C-0.55555556 8.44444444 -0.55555556 8.44444444 -2 7 C-2.1875 4.5625 -2.1875 4.5625 -2 2 C-1.34 1.34 -0.68 0.68 0 0 Z " fill="#EB4056" transform="translate(52,182)"/>
<path d="M0 0 C0.33 0 0.66 0 1 0 C1 2.33333333 1 4.66666667 1 7 C2.32 4.69 3.64 2.38 5 0 C5.66 0 6.32 0 7 0 C5.74875245 5.68748885 3.95897432 8.72847508 0 13 C-1.32 12.67 -2.64 12.34 -4 12 C-3.33501617 7.61110675 -1.81242323 4.0188515 0 0 Z " fill="#4B2C29" transform="translate(170,150)"/>
<path d="M0 0 C0.9590625 -0.02578125 1.918125 -0.0515625 2.90625 -0.078125 C5.5 0.25 5.5 0.25 7.32421875 1.57421875 C9.12296198 4.13787605 8.82322144 6.2117185 8.5 9.25 C7.84 9.91 7.18 10.57 6.5 11.25 C5.84 8.61 5.18 5.97 4.5 3.25 C3.34371094 3.28480469 3.34371094 3.28480469 2.1640625 3.3203125 C1.16117188 3.33835938 0.15828125 3.35640625 -0.875 3.375 C-1.87273437 3.39820313 -2.87046875 3.42140625 -3.8984375 3.4453125 C-6.5 3.25 -6.5 3.25 -8.5 1.25 C-5.45059327 0.23353109 -3.19630097 0.05155324 0 0 Z " fill="#60402A" transform="translate(164.5,140.75)"/>
<path d="M0 0 C1.11375 1.0209375 1.11375 1.0209375 2.25 2.0625 C4.72380648 4.24956063 4.72380648 4.24956063 7.0625 3.8125 C7.701875 3.544375 8.34125 3.27625 9 3 C10.33333333 2.66666667 11.66666667 2.33333333 13 2 C11.84826645 4.46800047 10.95216435 6.04783565 9 8 C6.6875 8.4375 6.6875 8.4375 4 8 C1.1875 5.5 1.1875 5.5 -1 3 C-0.67 2.01 -0.34 1.02 0 0 Z " fill="#432521" transform="translate(129,133)"/>
<path d="M0 0 C0 0.66 0 1.32 0 2 C-3.54538464 4.12723078 -6.93934209 4.48318899 -11 5 C-11.99 5.33 -12.98 5.66 -14 6 C-14 5.01 -14 4.02 -14 3 C-14.66 2.34 -15.32 1.68 -16 1 C-10.61509359 0.08342019 -5.45769811 -0.11138159 0 0 Z " fill="#EACDC4" transform="translate(169,143)"/>
<path d="M0 0 C0 0.33 0 0.66 0 1 C-6.6 1.66 -13.2 2.32 -20 3 C-20 2.01 -20 1.02 -20 0 C-13.57980892 -2.14006369 -6.58495622 -0.95781181 0 0 Z " fill="#42241F" transform="translate(125,91)"/>
<path d="M0 0 C0.33 0 0.66 0 1 0 C1 3.3 1 6.6 1 10 C-0.2375 10.04125 -1.475 10.0825 -2.75 10.125 C-3.79414062 10.15980469 -3.79414062 10.15980469 -4.859375 10.1953125 C-7 10 -7 10 -11 8 C-8.03 8 -5.06 8 -2 8 C-1.855625 6.865625 -1.71125 5.73125 -1.5625 4.5625 C-1 1 -1 1 0 0 Z " fill="#593E3B" transform="translate(124,81)"/>
<path d="M0 0 C0.94875 0.309375 1.8975 0.61875 2.875 0.9375 C7.50938425 2.27928271 12.20552041 2.63342007 17 3 C17 3.33 17 3.66 17 4 C15.10768055 4.39234694 13.21089343 4.76318316 11.3125 5.125 C10.25675781 5.33382812 9.20101562 5.54265625 8.11328125 5.7578125 C4.71017449 6.02254602 2.94786205 5.68904528 0 4 C-0.33 3.01 -0.66 2.02 -1 1 C-0.67 0.67 -0.34 0.34 0 0 Z " fill="#4F3535" transform="translate(90,135)"/>
<path d="M0 0 C0.98484375 0.11085938 1.9696875 0.22171875 2.984375 0.3359375 C3.73203125 0.43132812 4.4796875 0.52671875 5.25 0.625 C5.25 0.955 5.25 1.285 5.25 1.625 C4.27160156 1.80675781 4.27160156 1.80675781 3.2734375 1.9921875 C-1.53646342 2.91443989 -6.14025465 3.92667277 -10.75 5.625 C-10.5 3.75 -10.5 3.75 -9.75 1.625 C-6.42392863 -0.65397483 -3.91593301 -0.4661825 0 0 Z " fill="#462825" transform="translate(116.75,101.375)"/>
<path d="M0 0 C2.03125 0.05078125 2.03125 0.05078125 4.5 0.3125 C5.3146875 0.39113281 6.129375 0.46976562 6.96875 0.55078125 C7.97421875 0.77314453 7.97421875 0.77314453 9 1 C9.33 1.66 9.66 2.32 10 3 C4.62374766 3.84888195 0.34629602 4.0024305 -5 3 C-4.360625 2.690625 -3.72125 2.38125 -3.0625 2.0625 C-1.06389179 1.1654837 -1.06389179 1.1654837 0 0 Z " fill="#543937" transform="translate(89,83)"/>
<path d="M0 0 C2.00720923 0.28674418 4.0085944 0.61866701 6 1 C6.33 2.32 6.66 3.64 7 5 C6.33613281 4.84660156 5.67226562 4.69320312 4.98828125 4.53515625 C1.39844078 3.89226979 -2.17795419 3.64966009 -5.8125 3.4375 C-6.85180664 3.37272461 -6.85180664 3.37272461 -7.91210938 3.30664062 C-9.60788686 3.20138547 -11.30392052 3.10027137 -13 3 C-13 2.67 -13 2.34 -13 2 C-12.14535156 1.93941406 -11.29070312 1.87882812 -10.41015625 1.81640625 C-8.75306641 1.69072266 -8.75306641 1.69072266 -7.0625 1.5625 C-5.96035156 1.48128906 -4.85820313 1.40007813 -3.72265625 1.31640625 C-1.08890097 1.29581916 -1.08890097 1.29581916 0 0 Z " fill="#4F383D" transform="translate(122,59)"/>
<path d="M0 0 C4.74018901 1.83491188 9.36413251 3.91941459 14 6 C13.34 7.32 12.68 8.64 12 10 C9.99708788 8.52464063 7.99763223 7.04497707 6 5.5625 C5.42765625 5.14162109 4.8553125 4.72074219 4.265625 4.28710938 C2.82546081 3.21555864 1.41048004 2.11033324 0 1 C0 0.67 0 0.34 0 0 Z " fill="#DAA81B" transform="translate(53,142)"/>
<path d="M0 0 C4.95 0 9.9 0 15 0 C14.67 0.66 14.34 1.32 14 2 C10.83984375 2.4140625 10.83984375 2.4140625 6.9375 2.625 C5.64714844 2.69976562 4.35679688 2.77453125 3.02734375 2.8515625 C2.02832031 2.90054688 1.02929688 2.94953125 0 3 C0 2.01 0 1.02 0 0 Z " fill="#40221F" transform="translate(107,59)"/>
<path d="M0 0 C0 0.99 0 1.98 0 3 C-2.97 3.66 -5.94 4.32 -9 5 C-9.33 4.01 -9.66 3.02 -10 2 C-6.38026598 0.68373308 -3.90432869 0 0 0 Z " fill="#503330" transform="translate(107,59)"/>
<path d="M0 0 C-0.33 0.66 -0.66 1.32 -1 2 C-5.29 2 -9.58 2 -14 2 C-10.53176091 -1.46823909 -4.53632763 -1.70112286 0 0 Z " fill="#3E201D" transform="translate(111,139)"/>
<path d="M0 0 C0.99 0 1.98 0 3 0 C1.125 5.875 1.125 5.875 0 7 C-1.99958364 7.04080783 -4.00045254 7.04254356 -6 7 C-4.625 5.5 -4.625 5.5 -3 4 C-2.34 4 -1.68 4 -1 4 C-0.67 2.68 -0.34 1.36 0 0 Z " fill="#402321" transform="translate(101,80)"/>
<path d="M0 0 C0.33 0.99 0.66 1.98 1 3 C-1.15343189 6.23014784 -2.27059611 7.75686537 -6 9 C-5.52797514 4.75177626 -3.03344482 2.80010291 0 0 Z " fill="#422520" transform="translate(122,117)"/>
<path d="M0 0 C5.75 1.875 5.75 1.875 8 3 C7.67 3.99 7.34 4.98 7 6 C4.36 4.68 1.72 3.36 -1 2 C-0.67 1.34 -0.34 0.68 0 0 Z " fill="#53342D" transform="translate(70,155)"/>
<path d="M0 0 C1.98 0.495 1.98 0.495 4 1 C3.67 2.32 3.34 3.64 3 5 C1.68 4.67 0.36 4.34 -1 4 C-0.67 2.68 -0.34 1.36 0 0 Z " fill="#F2CA55" transform="translate(174,29)"/>
<path d="M0 0 C0.33 1.32 0.66 2.64 1 4 C-0.32 4.99 -1.64 5.98 -3 7 C-3.66 6.67 -4.32 6.34 -5 6 C-3.63016497 2.83884224 -3.0109362 2.0072908 0 0 Z " fill="#4C2F2D" transform="translate(107,74)"/>
<path d="M0 0 C2.97 0 5.94 0 9 0 C9 0.66 9 1.32 9 2 C7.3125 3.1875 7.3125 3.1875 5 4 C2.25 2.6875 2.25 2.6875 0 1 C0 0.67 0 0.34 0 0 Z " fill="#BDA19A" transform="translate(160,143)"/>
<path d="M0 0 C1.65 0 3.3 0 5 0 C4.67 1.32 4.34 2.64 4 4 C2.68 3.67 1.36 3.34 0 3 C0 2.01 0 1.02 0 0 Z " fill="#56372B" transform="translate(49,139)"/>
<path d="M0 0 C1.32 0 2.64 0 4 0 C5.125 3.75 5.125 3.75 4 6 C3.34 6 2.68 6 2 6 C1.34 4.02 0.68 2.04 0 0 Z " fill="#4D3230" transform="translate(140,73)"/>
<path d="M0 0 C0.33 0.66 0.66 1.32 1 2 C-4.41538462 3.23076923 -4.41538462 3.23076923 -7.375 2.0625 C-7.91125 1.711875 -8.4475 1.36125 -9 1 C-5.92677456 0.08941469 -3.19902639 -0.08886184 0 0 Z " fill="#5C3F37" transform="translate(140,162)"/>
<path d="M0 0 C0.66 0.33 1.32 0.66 2 1 C1.67 1.99 1.34 2.98 1 4 C-0.65 4.33 -2.3 4.66 -4 5 C-2.25 1.125 -2.25 1.125 0 0 Z " fill="#513533" transform="translate(114,136)"/>
</svg>
